HIERARCHY
ROOT Hips
{
    OFFSET   0.000000   0.000000   0.000000
    CHANNELS 6 Xposition Yposition Zposition Zrotation Xrotation Yrotation
    JOINT Chest
    {
        OFFSET   0.000000   8.007230   0.000000
        CHANNELS 3 Zrotation Xrotation Yrotation
        JOINT Chest2
        {
            OFFSET   0.000000  22.077100   0.000000
            CHANNELS 3 Zrotation Xrotation Yrotation
            JOINT Neck
            {
                OFFSET   0.000000  23.255100   0.000000
                CHANNELS 3 Zrotation Xrotation Yrotation
                JOINT Head
                {
                    OFFSET   0.000000  14.370100   1.956600
                    CHANNELS 3 Zrotation Xrotation Yrotation
                    End Site
                    {
                        OFFSET   0.000000  19.566000   0.000000
                    }
                }
            }
            JOINT LeftCollar
            {
                OFFSET   3.911900  19.017000  -0.467063
                CHANNELS 3 Zrotation Xrotation Yrotation
                JOINT LeftShoulder
                {
                    OFFSET  10.383700   0.000000   0.000000
                    CHANNELS 3 Zrotation Xrotation Yrotation
                    JOINT LeftElbow
                    {
                        OFFSET  26.662100   0.001193   0.000980
                        CHANNELS 3 Zrotation Xrotation Yrotation
                        JOINT LeftWrist
                        {
                            OFFSET  28.869000  -0.000059  -0.000082
                            CHANNELS 3 Zrotation Xrotation Yrotation
                            JOINT LeftFinger0
                            {
                                OFFSET   2.044650  -2.323450   3.252850
                                CHANNELS 3 Zrotation Xrotation Yrotation
                                JOINT LeftFinger01
                                {
                                    OFFSET   3.088130   0.000000   0.000000
                                    CHANNELS 3 Zrotation Xrotation Yrotation
                                    JOINT LeftFinger02
                                    {
                                        OFFSET   2.639460   0.000000   0.000000
                                        CHANNELS 3 Zrotation Xrotation Yrotation
                                        End Site
                                        {
                                            OFFSET   2.582190   0.000000   0.000000
                                        }
                                    }
                                }
                            }
                            JOINT LeftFinger1
                            {
                                OFFSET   8.364480   0.000000   3.252850
                                CHANNELS 3 Zrotation Xrotation Yrotation
                                JOINT LeftFinger11
                                {
                                    OFFSET   4.646930   0.000000   0.000000
                                    CHANNELS 3 Zrotation Xrotation Yrotation
                                    JOINT LeftFinger12
                                    {
                                        OFFSET   2.323470   0.000000   0.000000
                                        CHANNELS 3 Zrotation Xrotation Yrotation
                                        End Site
                                        {
                                            OFFSET   2.273050   0.000000   0.000000
                                        }
                                    }
                                }
                            }
                            JOINT LeftFinger2
                            {
                                OFFSET   8.364490   0.000016   1.078090
                                CHANNELS 3 Zrotation Xrotation Yrotation
                                JOINT LeftFinger21
                                {
                                    OFFSET   5.111610   0.000000   0.000000
                                    CHANNELS 3 Zrotation Xrotation Yrotation
                                    JOINT LeftFinger22
                                    {
                                        OFFSET   2.788150   0.000016   0.000000
                                        CHANNELS 3 Zrotation Xrotation Yrotation
                                        End Site
                                        {
                                            OFFSET   2.727660   0.000000   0.000000
                                        }
                                    }
                                }
                            }
                            JOINT LeftFinger3
                            {
                                OFFSET   7.899780   0.000015  -1.078090
                                CHANNELS 3 Zrotation Xrotation Yrotation
                                JOINT LeftFinger31
                                {
                                    OFFSET   4.646930   0.000000   0.000000
                                    CHANNELS 3 Zrotation Xrotation Yrotation
                                    JOINT LeftFinger32
                                    {
                                        OFFSET   2.323470   0.000000   0.000000
                                        CHANNELS 3 Zrotation Xrotation Yrotation
                                        End Site
                                        {
                                            OFFSET   2.273050   0.000000   0.000000
                                        }
                                    }
                                }
                            }
                            JOINT LeftFinger4
                            {
                                OFFSET   7.435090   0.000000  -3.252850
                                CHANNELS 3 Zrotation Xrotation Yrotation
                                JOINT LeftFinger41
                                {
                                    OFFSET   3.717550   0.000000   0.000000
                                    CHANNELS 3 Zrotation Xrotation Yrotation
                                    JOINT LeftFinger42
                                    {
                                        OFFSET   1.858770   0.000000   0.000000
                                        CHANNELS 3 Zrotation Xrotation Yrotation
                                        End Site
                                        {
                                            OFFSET   1.818440   0.000000   0.000000
                                        }
                                    }
                                }
                            }
                        }
                    }
                }
            }
            JOINT RightCollar
            {
                OFFSET  -3.911910  19.017000  -0.467062
                CHANNELS 3 Zrotation Xrotation Yrotation
                JOINT RightShoulder
                {
                    OFFSET -10.383700   0.000014   0.000000
                    CHANNELS 3 Zrotation Xrotation Yrotation
                    JOINT RightElbow
                    {
                        OFFSET -26.662100   0.001225   0.001091
                        CHANNELS 3 Zrotation Xrotation Yrotation
                        JOINT RightWrist
                        {
                            OFFSET -28.869000  -0.000020  -0.000085
                            CHANNELS 3 Zrotation Xrotation Yrotation
                            JOINT RightFinger0
                            {
                                OFFSET  -2.044650  -2.323490   3.252850
                                CHANNELS 3 Zrotation Xrotation Yrotation
                                JOINT RightFinger01
                                {
                                    OFFSET  -3.088130   0.000000   0.000000
                                    CHANNELS 3 Zrotation Xrotation Yrotation
                                    JOINT RightFinger02
                                    {
                                        OFFSET  -2.639460   0.000000   0.000000
                                        CHANNELS 3 Zrotation Xrotation Yrotation
                                        End Site
                                        {
                                            OFFSET  -2.582190   0.000000   0.000000
                                        }
                                    }
                                }
                            }
                            JOINT RightFinger1
                            {
                                OFFSET  -8.364480   0.000000   3.252850
                                CHANNELS 3 Zrotation Xrotation Yrotation
                                JOINT RightFinger11
                                {
                                    OFFSET  -4.646930   0.000000   0.000000
                                    CHANNELS 3 Zrotation Xrotation Yrotation
                                    JOINT RightFinger12
                                    {
                                        OFFSET  -2.323470   0.000000   0.000000
                                        CHANNELS 3 Zrotation Xrotation Yrotation
                                        End Site
                                        {
                                            OFFSET  -2.273050   0.000000   0.000000
                                        }
                                    }
                                }
                            }
                            JOINT RightFinger2
                            {
                                OFFSET  -8.364480   0.000000   1.078090
                                CHANNELS 3 Zrotation Xrotation Yrotation
                                JOINT RightFinger21
                                {
                                    OFFSET  -5.111620   0.000000   0.000000
                                    CHANNELS 3 Zrotation Xrotation Yrotation
                                    JOINT RightFinger22
                                    {
                                        OFFSET  -2.788160   0.000000   0.000000
                                        CHANNELS 3 Zrotation Xrotation Yrotation
                                        End Site
                                        {
                                            OFFSET  -2.727660   0.000000   0.000000
                                        }
                                    }
                                }
                            }
                            JOINT RightFinger3
                            {
                                OFFSET  -7.899780   0.000000  -1.078090
                                CHANNELS 3 Zrotation Xrotation Yrotation
                                JOINT RightFinger31
                                {
                                    OFFSET  -4.646930   0.000000   0.000000
                                    CHANNELS 3 Zrotation Xrotation Yrotation
                                    JOINT RightFinger32
                                    {
                                        OFFSET  -2.323470   0.000000   0.000000
                                        CHANNELS 3 Zrotation Xrotation Yrotation
                                        End Site
                                        {
                                            OFFSET  -2.273050   0.000000   0.000000
                                        }
                                    }
                                }
                            }
                            JOINT RightFinger4
                            {
                                OFFSET  -7.435090   0.000000  -3.252850
                                CHANNELS 3 Zrotation Xrotation Yrotation
                                JOINT RightFinger41
                                {
                                    OFFSET  -3.717550   0.000000   0.000000
                                    CHANNELS 3 Zrotation Xrotation Yrotation
                                    JOINT RightFinger42
                                    {
                                        OFFSET  -1.858760   0.000000   0.000000
                                        CHANNELS 3 Zrotation Xrotation Yrotation
                                        End Site
                                        {
                                            OFFSET  -1.818440   0.000000   0.000000
                                        }
                                    }
                                }
                            }
                        }
                    }
                }
            }
        }
    }
    JOINT LeftHip
    {
        OFFSET   9.783030   0.000000   0.000000
        CHANNELS 3 Zrotation Xrotation Yrotation
        JOINT LeftKnee
        {
            OFFSET   0.000063 -41.789100   0.000608
            CHANNELS 3 Zrotation Xrotation Yrotation
            JOINT LeftAnkle
            {
                OFFSET   0.000048 -41.133200  -0.000184
                CHANNELS 3 Zrotation Xrotation Yrotation
                JOINT LeftToe
                {
                    OFFSET   0.000000  -6.358960  14.674500
                    CHANNELS 3 Zrotation Xrotation Yrotation
                    End Site
                    {
                        OFFSET   0.000000   0.000000   3.913200
                    }
                }
            }
        }
    }
    JOINT RightHip
    {
        OFFSET  -9.783030   0.000000   0.000000
        CHANNELS 3 Zrotation Xrotation Yrotation
        JOINT RightKnee
        {
            OFFSET   0.000071 -41.789100   0.001239
            CHANNELS 3 Zrotation Xrotation Yrotation
            JOINT RightAnkle
            {
                OFFSET   0.000037 -41.133200  -0.000166
                CHANNELS 3 Zrotation Xrotation Yrotation
                JOINT RightToe
                {
                    OFFSET   0.000000  -6.358960  14.674500
                    CHANNELS 3 Zrotation Xrotation Yrotation
                    End Site
                    {
                        OFFSET   0.000000   0.000000   3.913200
                    }
                }
            }
        }
    }
}
MOTION
Frames: 4
Frame Time:   0.016667
  0.877837  89.600600  -2.008430  -2.995730  -8.970090  -0.360753   0.232309   5.400250   0.422984   0.427233  10.802100   0.829425   0.617956   0.108787   0.005706   1.024890   0.220208   0.601473  -6.477680  -2.453700   0.348654 -73.156700  16.856800   4.141920  -3.312660 -10.380900 -21.467500  12.770000 -16.676100   8.334560  39.236600  33.689100 -61.328800 -32.920400   0.002702   0.002836 -11.469700  -0.002907   0.003479 -25.661200   5.631600 -11.544200 -21.461700  -0.000518  -0.000725 -15.023200   0.006476  -0.000577 -27.997200   1.886440  -3.565310 -32.406900  -0.009098  -0.005305 -21.583000   0.008398  -0.003162 -25.808100   0.522602  -1.080530 -25.813000  -0.008984  -0.002511 -17.191500  -0.003716  -0.001829 -24.384400   0.495587  -1.093160 -36.583700  -0.007036  -0.001717 -24.364700   0.002254  -0.001092  11.235400  -0.547979   7.580060  69.125800  17.914100  -6.095540   1.726780 -13.164000  14.015600 -14.393700  -4.510170   3.319400 -40.214500  30.507400  63.899100  26.792700   0.007713  -0.003816   8.396360   0.008643  -0.002440  28.717300   4.863380   8.796340  23.799400   0.014085  -0.007562  16.659600   0.005120  -0.008215  30.011300   3.156520   5.445590  45.242200   0.001295   0.000185  30.131300   0.001344   0.002694  28.675100   2.734470   4.985050  42.282700   0.007152   0.000596  28.163100  -0.000214   0.000312  41.618500  -1.557850  -1.753560  62.463200  -0.002064  -0.007424  41.600500   0.000425   0.000236   2.002850   9.756790   3.119190   1.212600   0.215364   9.224270  -0.791476  -2.689870   3.125910  -0.000000   0.000000  -0.000000   4.839090   6.810470  -4.156910  -2.198550   6.049810 -10.130000  -0.127588  -5.331340  -0.180728   0.000000   0.000000  -0.000000
  0.865248  89.600600  -2.017180  -2.991970  -8.985980  -0.335064   0.231941   5.400290   0.419560   0.426715  10.802100   0.822563   0.625655   0.109692   0.005705   1.031780   0.222034   0.592441  -6.478040  -2.450010   0.340788 -73.147500  16.883800   4.123140  -3.305810 -10.399500 -21.469000  12.773000 -16.688700   8.339900  39.229900  33.692800 -61.333200 -32.929900   0.002700   0.002835 -11.469700  -0.002901   0.003481 -25.665000   5.625120 -11.528100 -21.464200  -0.000519  -0.000725 -15.025000   0.006475  -0.000580 -27.997500   1.886460  -3.557520 -32.425800  -0.009101  -0.005301 -21.595600   0.008399  -0.003159 -25.814700   0.518686  -1.072100 -25.819600  -0.008985  -0.002509 -17.195800  -0.003715  -0.001828 -24.392400   0.491912  -1.084640 -36.596900  -0.007035  -0.001713 -24.372600   0.002256  -0.001091  11.235100  -0.548195   7.568310  69.135000  17.886900  -6.128770   1.744510 -13.151700  14.011600 -14.388400  -4.523370   3.334880 -40.200300  30.513500  63.906100  26.822300   0.007713  -0.003805   8.411160   0.008643  -0.002435  28.725400   4.855740   8.778440  23.799100   0.014085  -0.007559  16.659400   0.005122  -0.008215  30.025800   3.136290   5.407750  45.261000   0.001295   0.000188  30.143900   0.001342   0.002697  28.677700   2.718690   4.956140  42.287800   0.007150   0.000596  28.163000  -0.000213   0.000314  41.616800  -1.557650  -1.753380  62.460600  -0.002061  -0.007426  41.598800   0.000427   0.000236   2.008680   9.779140   3.109960   1.215560   0.181397   9.224390  -0.797927  -2.665020   3.114560  -0.000000   0.000000  -0.000000   4.844460   6.820240  -4.156710  -2.196700   6.054550 -10.143500  -0.127945  -5.341810  -0.191323  -0.000000   0.000000   0.000000
  0.844405  89.600600  -2.031420  -2.986260  -9.009350  -0.296817   0.231798   5.400320   0.413762   0.427096  10.802100   0.810902   0.633853   0.113726   0.005701   1.041330   0.230215   0.578761  -6.478420  -2.443010   0.332910 -73.135400  16.911000   4.094210  -3.292990 -10.418000 -21.470500  12.776000 -16.701100   8.352080  39.230600  33.700200 -61.341500 -32.939400   0.002696   0.002832 -11.469700  -0.002895   0.003490 -25.671800   5.611180 -11.498300 -21.466800  -0.000519  -0.000726 -15.026800   0.006470  -0.000584 -27.998100   1.886490  -3.541560 -32.444600  -0.009107  -0.005294 -21.608100   0.008400  -0.003155 -25.821400   0.510049  -1.053940 -25.826100  -0.008986  -0.002504 -17.200200  -0.003712  -0.001823 -24.402300   0.483789  -1.066250 -36.610200  -0.007031  -0.001704 -24.382400   0.002257  -0.001086  11.234600  -0.548505   7.548150  69.153800  17.844700  -6.178900   1.772800 -13.131300  13.997800 -14.380000  -4.536570   3.350360 -40.178800  30.523800  63.918100  26.867300   0.007712  -0.003795   8.433630   0.008640  -0.002426  28.733800   4.846520   8.760510  23.798800   0.014087  -0.007554  16.659100   0.005124  -0.008214  30.040300   3.116050   5.369910  45.279800   0.001293   0.000191  30.156400   0.001340   0.002701  28.680300   2.702910   4.927230  42.292900   0.007148   0.000595  28.162900  -0.000208   0.000316  41.613100  -1.557380  -1.753130  62.455100  -0.002058  -0.007430  41.595100   0.000432   0.000236   2.017600   9.801510   3.098200   1.218530   0.147429   9.224810  -0.808698  -2.629440   3.096550  -0.000000   0.000000  -0.000000   4.854840   6.831420  -4.156530  -2.196790   6.063730 -10.157000  -0.124901  -5.364560  -0.207563  -0.000000   0.000000  -0.000000
  0.827846  89.600600  -2.042240  -2.983030  -9.021030  -0.276061   0.232396   5.400020   0.408939   0.429097  10.801500   0.801152   0.634384   0.122606   0.005698   1.045060   0.248253   0.570608  -6.476500  -2.435430   0.332896 -73.130300  16.907100   4.076930  -3.279320 -10.407900 -21.469300  12.770500 -16.696500   8.367900  39.247000  33.720500 -61.341900 -32.938800   0.002695   0.002829 -11.470100  -0.002904   0.003510 -25.657400   5.591130 -11.465900 -21.452000  -0.000521  -0.000731 -15.016400   0.006460  -0.000585 -27.999500   1.877470  -3.520840 -32.426400  -0.009112  -0.005289 -21.596000   0.008401  -0.003152 -25.812500   0.497631  -1.028660 -25.817000  -0.008985  -0.002495 -17.194100  -0.003705  -0.001814 -24.404400   0.472091  -1.040630 -36.603300  -0.007023  -0.001693 -24.384300   0.002255  -0.001074  11.234300  -0.548659   7.530120  69.176800  17.818800  -6.206700   1.791920 -13.110300  13.969000 -14.372000  -4.533270   3.337480 -40.165300  30.532100  63.928200  26.899200   0.007706  -0.003816   8.449570   0.008636  -0.002421  28.725500   4.844680   8.760780  23.798800   0.014096  -0.007548  16.659200   0.005123  -0.008207  30.033800   3.131510   5.398140  45.271200   0.001291   0.000192  30.150600   0.001343   0.002706  28.679500   2.707990   4.936510  42.291500   0.007151   0.000597  28.163200  -0.000200   0.000317  41.606800  -1.557260  -1.753010  62.445900  -0.002060  -0.007432  41.589000   0.000440   0.000234   2.022470   9.798680   3.096480   1.222940   0.149067   9.225580  -0.817480  -2.613960   3.083630  -0.000000   0.000000   0.000000   4.867290   6.833040  -4.158060  -2.204850   6.073610 -10.151400  -0.114090  -5.394730  -0.219259   0.000000   0.000000   0.000000
